<mxfile host="app.diagrams.net" agent="Mozilla/5.0 (Windows NT 10.0; Win64; x64) AppleWebKit/537.36 (KHTML, like Gecko) Chrome/131.0.0.0 Safari/537.36" version="26.0.2">
  <diagram name="Page-1" id="UrtBLwfLKVEdLeXOVd5_">
    <mxGraphModel dx="2284" dy="780" grid="1" gridSize="10" guides="1" tooltips="1" connect="1" arrows="1" fold="1" page="1" pageScale="1" pageWidth="850" pageHeight="1100" math="0" shadow="0">
      <root>
        <mxCell id="0" />
        <mxCell id="1" parent="0" />
        <mxCell id="d5NTxCS-VkbqAfCXkj9J-47" style="edgeStyle=orthogonalEdgeStyle;rounded=0;orthogonalLoop=1;jettySize=auto;html=1;dashed=1;strokeWidth=2;opacity=70;shadow=0;entryX=0;entryY=0.5;entryDx=0;entryDy=0;" edge="1" parent="1" source="d5NTxCS-VkbqAfCXkj9J-21" target="d5NTxCS-VkbqAfCXkj9J-63">
          <mxGeometry relative="1" as="geometry">
            <mxPoint x="1130" y="450" as="targetPoint" />
            <Array as="points">
              <mxPoint x="-69" y="119" />
              <mxPoint x="-69" y="370" />
              <mxPoint x="1130" y="370" />
              <mxPoint x="1130" y="372" />
            </Array>
          </mxGeometry>
        </mxCell>
        <mxCell id="d5NTxCS-VkbqAfCXkj9J-64" value="&lt;font style=&quot;font-size: 14px;&quot;&gt;Solve optimization problem&lt;/font&gt;" style="edgeLabel;html=1;align=center;verticalAlign=middle;resizable=0;points=[];" vertex="1" connectable="0" parent="d5NTxCS-VkbqAfCXkj9J-47">
          <mxGeometry x="0.6542" relative="1" as="geometry">
            <mxPoint as="offset" />
          </mxGeometry>
        </mxCell>
        <mxCell id="d5NTxCS-VkbqAfCXkj9J-66" value="Forecast future data" style="edgeLabel;html=1;align=center;verticalAlign=middle;resizable=0;points=[];fontSize=14;" vertex="1" connectable="0" parent="d5NTxCS-VkbqAfCXkj9J-47">
          <mxGeometry x="0.3512" relative="1" as="geometry">
            <mxPoint as="offset" />
          </mxGeometry>
        </mxCell>
        <mxCell id="d5NTxCS-VkbqAfCXkj9J-67" value="Analyze historical data" style="edgeLabel;html=1;align=center;verticalAlign=middle;resizable=0;points=[];fontSize=14;" vertex="1" connectable="0" parent="d5NTxCS-VkbqAfCXkj9J-47">
          <mxGeometry x="0.0519" y="1" relative="1" as="geometry">
            <mxPoint as="offset" />
          </mxGeometry>
        </mxCell>
        <mxCell id="d5NTxCS-VkbqAfCXkj9J-21" value="&lt;font style=&quot;font-size: 13px;&quot;&gt;User&lt;/font&gt;" style="sketch=0;outlineConnect=0;fontColor=#232F3E;gradientColor=none;fillColor=#232F3D;strokeColor=none;dashed=0;verticalLabelPosition=bottom;verticalAlign=top;align=center;html=1;fontSize=12;fontStyle=0;aspect=fixed;pointerEvents=1;shape=mxgraph.aws4.user;" vertex="1" parent="1">
          <mxGeometry x="60" y="90" width="78" height="78" as="geometry" />
        </mxCell>
        <mxCell id="d5NTxCS-VkbqAfCXkj9J-24" value="PSA Tool" style="swimlane;whiteSpace=wrap;html=1;fontSize=13;" vertex="1" parent="1">
          <mxGeometry x="60" y="210" width="951" height="430" as="geometry" />
        </mxCell>
        <mxCell id="d5NTxCS-VkbqAfCXkj9J-34" value="Descriptive Analytics" style="swimlane;whiteSpace=wrap;html=1;" vertex="1" parent="d5NTxCS-VkbqAfCXkj9J-24">
          <mxGeometry x="200" y="22" width="250" height="200" as="geometry" />
        </mxCell>
        <mxCell id="d5NTxCS-VkbqAfCXkj9J-39" value="" style="shape=image;verticalLabelPosition=bottom;labelBackgroundColor=default;verticalAlign=top;aspect=fixed;imageAspect=0;image=https://matplotlib.org/_static/logo_light.svg;" vertex="1" parent="d5NTxCS-VkbqAfCXkj9J-34">
          <mxGeometry x="41.66" y="48" width="166.67" height="40" as="geometry" />
        </mxCell>
        <mxCell id="d5NTxCS-VkbqAfCXkj9J-35" value="Predictive Analytics" style="swimlane;whiteSpace=wrap;html=1;" vertex="1" parent="d5NTxCS-VkbqAfCXkj9J-24">
          <mxGeometry x="450" y="22" width="240" height="200" as="geometry" />
        </mxCell>
        <mxCell id="d5NTxCS-VkbqAfCXkj9J-38" value="TensorFlow" style="sketch=0;html=1;verticalAlign=top;labelPosition=center;verticalLabelPosition=bottom;align=center;spacingTop=-6;fontSize=11;fontStyle=1;fontColor=#999999;shape=image;aspect=fixed;imageAspect=0;image=data:image/svg+xml,PHN2ZyB4bWxucz0iaHR0cDovL3d3dy53My5vcmcvMjAwMC9zdmciIHhtbG5zOnY9Imh0dHBzOi8vdmVjdGEuaW8vbmFubyIgd2lkdGg9IjM0Ni4zMDMyMTgzOTM3OTEiIGhlaWdodD0iMzc5LjE5NjAwODk5NjY3Mjk2IiB2aWV3Qm94PSIwIDAgOTEuNjI1OTk5NDUwNjgzNiAxMDAuMzI5MDAyMzgwMzcxMSI+JiN4YTs8c3R5bGUgdHlwZT0idGV4dC9jc3MiPiYjeGE7CS5zdDB7ZmlsbDojNDI4NWY0O30mI3hhOzwvc3R5bGU+JiN4YTsJPHBhdGggY2xhc3M9InN0MCIgZD0iTTQ3LjcyOSAxMDAuMzI5VjBsNDMuODk3IDI1LjAyNXYyMS41NjJsLTI2LjgtMTUuMzQxdjExLjk1bDEzLjIxMyA2Ljg3NnYxOS4xNzdsLTEzLjIxMy03LjcxN3YyOS4wNDZ6TTAgMjUuMDI1TDQzLjQ2MyAwdjEwMC4zMjlsLTE2Ljc1Ni05Ljc1MnYtNTkuMzNMMCA0Ni41ODd6Ii8+JiN4YTs8L3N2Zz4=;" vertex="1" parent="d5NTxCS-VkbqAfCXkj9J-35">
          <mxGeometry x="40" y="36" width="66.1" height="73.05" as="geometry" />
        </mxCell>
        <mxCell id="d5NTxCS-VkbqAfCXkj9J-54" value="LSTM&lt;div&gt;XGBoost&lt;/div&gt;" style="text;strokeColor=none;fillColor=none;align=left;verticalAlign=middle;spacingLeft=4;spacingRight=4;overflow=hidden;points=[[0,0.5],[1,0.5]];portConstraint=eastwest;rotatable=0;whiteSpace=wrap;html=1;fontSize=14;" vertex="1" parent="d5NTxCS-VkbqAfCXkj9J-35">
          <mxGeometry x="130" y="48" width="90" height="50" as="geometry" />
        </mxCell>
        <mxCell id="d5NTxCS-VkbqAfCXkj9J-36" value="Prescriptive Analytics" style="swimlane;whiteSpace=wrap;html=1;" vertex="1" parent="d5NTxCS-VkbqAfCXkj9J-24">
          <mxGeometry x="680" y="22" width="271" height="200" as="geometry" />
        </mxCell>
        <mxCell id="d5NTxCS-VkbqAfCXkj9J-33" value="" style="shape=image;verticalLabelPosition=bottom;labelBackgroundColor=default;verticalAlign=top;aspect=fixed;imageAspect=0;image=https://www.cvxpy.org/_static/cvxpy-wordmark-light.png;" vertex="1" parent="d5NTxCS-VkbqAfCXkj9J-36">
          <mxGeometry x="30" y="53" width="125.74" height="27" as="geometry" />
        </mxCell>
        <mxCell id="d5NTxCS-VkbqAfCXkj9J-55" value="Gurobi&lt;div&gt;CPLEX&lt;/div&gt;" style="text;strokeColor=none;fillColor=none;align=left;verticalAlign=middle;spacingLeft=4;spacingRight=4;overflow=hidden;points=[[0,0.5],[1,0.5]];portConstraint=eastwest;rotatable=0;whiteSpace=wrap;html=1;fontSize=14;" vertex="1" parent="d5NTxCS-VkbqAfCXkj9J-36">
          <mxGeometry x="170" y="40.08" width="90" height="50" as="geometry" />
        </mxCell>
        <mxCell id="d5NTxCS-VkbqAfCXkj9J-37" value="Data Management" style="swimlane;whiteSpace=wrap;html=1;" vertex="1" parent="d5NTxCS-VkbqAfCXkj9J-24">
          <mxGeometry y="22" width="200" height="200" as="geometry" />
        </mxCell>
        <mxCell id="d5NTxCS-VkbqAfCXkj9J-25" value="" style="shape=image;verticalLabelPosition=bottom;labelBackgroundColor=default;verticalAlign=top;aspect=fixed;imageAspect=0;image=https://duckdb.org/images/logo-dl/DuckDB_Logo-horizontal.svg;" vertex="1" parent="d5NTxCS-VkbqAfCXkj9J-37">
          <mxGeometry x="36" y="48" width="112.94" height="32" as="geometry" />
        </mxCell>
        <mxCell id="d5NTxCS-VkbqAfCXkj9J-49" value="Codebase &amp;amp; DataFrame libraries" style="swimlane;whiteSpace=wrap;html=1;" vertex="1" parent="d5NTxCS-VkbqAfCXkj9J-24">
          <mxGeometry y="222" width="950" height="208" as="geometry">
            <mxRectangle y="222" width="220" height="30" as="alternateBounds" />
          </mxGeometry>
        </mxCell>
        <mxCell id="d5NTxCS-VkbqAfCXkj9J-30" value="" style="shape=image;verticalLabelPosition=bottom;labelBackgroundColor=default;verticalAlign=top;aspect=fixed;imageAspect=0;image=https://upload.wikimedia.org/wikipedia/commons/thumb/e/ed/Pandas_logo.svg/2560px-Pandas_logo.svg.png;" vertex="1" parent="d5NTxCS-VkbqAfCXkj9J-49">
          <mxGeometry x="6.24" y="28" width="177.79" height="72" as="geometry" />
        </mxCell>
        <mxCell id="d5NTxCS-VkbqAfCXkj9J-31" value="" style="shape=image;verticalLabelPosition=bottom;labelBackgroundColor=default;verticalAlign=top;aspect=fixed;imageAspect=0;image=https://raw.githubusercontent.com/pola-rs/polars-static/master/banner/polars_github_banner.svg;" vertex="1" parent="d5NTxCS-VkbqAfCXkj9J-49">
          <mxGeometry x="330" y="37" width="225.27" height="52" as="geometry" />
        </mxCell>
        <mxCell id="d5NTxCS-VkbqAfCXkj9J-32" value="" style="shape=image;verticalLabelPosition=bottom;labelBackgroundColor=default;verticalAlign=top;aspect=fixed;imageAspect=0;image=https://github.com/rapidsai/cudf/raw/branch-25.02/img/rapids_logo.png;" vertex="1" parent="d5NTxCS-VkbqAfCXkj9J-49">
          <mxGeometry x="370.73" y="128" width="143.81" height="52" as="geometry" />
        </mxCell>
        <mxCell id="d5NTxCS-VkbqAfCXkj9J-43" value="" style="shape=image;verticalLabelPosition=bottom;labelBackgroundColor=default;verticalAlign=top;aspect=fixed;imageAspect=0;image=https://modin.readthedocs.io/en/0.11.0/_static/MODIN_ver2.png;" vertex="1" parent="d5NTxCS-VkbqAfCXkj9J-49">
          <mxGeometry x="29.990000000000006" y="128" width="130.28" height="70" as="geometry" />
        </mxCell>
        <mxCell id="d5NTxCS-VkbqAfCXkj9J-23" value="" style="shape=image;html=1;verticalAlign=top;verticalLabelPosition=bottom;labelBackgroundColor=#ffffff;imageAspect=0;aspect=fixed;image=https://cdn4.iconfinder.com/data/icons/scripting-and-programming-languages/512/660277-Python_logo-128.png" vertex="1" parent="d5NTxCS-VkbqAfCXkj9J-49">
          <mxGeometry x="720" y="37" width="150" height="150" as="geometry" />
        </mxCell>
        <mxCell id="d5NTxCS-VkbqAfCXkj9J-56" value="OR" style="text;html=1;align=center;verticalAlign=middle;resizable=0;points=[];autosize=1;strokeColor=none;fillColor=none;fontSize=15;fontStyle=3" vertex="1" parent="d5NTxCS-VkbqAfCXkj9J-49">
          <mxGeometry x="70.13" y="89" width="50" height="30" as="geometry" />
        </mxCell>
        <mxCell id="d5NTxCS-VkbqAfCXkj9J-57" value="AND" style="text;html=1;align=center;verticalAlign=middle;resizable=0;points=[];autosize=1;strokeColor=none;fillColor=none;fontSize=15;fontStyle=3" vertex="1" parent="d5NTxCS-VkbqAfCXkj9J-49">
          <mxGeometry x="412.64" y="91" width="60" height="30" as="geometry" />
        </mxCell>
        <mxCell id="d5NTxCS-VkbqAfCXkj9J-58" value="OR" style="text;html=1;align=center;verticalAlign=middle;resizable=0;points=[];autosize=1;strokeColor=none;fillColor=none;fontSize=15;fontStyle=3" vertex="1" parent="d5NTxCS-VkbqAfCXkj9J-49">
          <mxGeometry x="230" y="91" width="50" height="30" as="geometry" />
        </mxCell>
        <mxCell id="d5NTxCS-VkbqAfCXkj9J-59" value="+" style="text;html=1;align=center;verticalAlign=middle;resizable=0;points=[];autosize=1;strokeColor=none;fillColor=none;fontStyle=1;fontSize=30;" vertex="1" parent="d5NTxCS-VkbqAfCXkj9J-49">
          <mxGeometry x="620" y="87" width="40" height="50" as="geometry" />
        </mxCell>
        <mxCell id="d5NTxCS-VkbqAfCXkj9J-52" style="edgeStyle=orthogonalEdgeStyle;rounded=0;orthogonalLoop=1;jettySize=auto;html=1;strokeWidth=2;" edge="1" parent="d5NTxCS-VkbqAfCXkj9J-24" source="d5NTxCS-VkbqAfCXkj9J-25">
          <mxGeometry relative="1" as="geometry">
            <mxPoint x="93" y="258" as="targetPoint" />
            <Array as="points">
              <mxPoint x="93" y="258" />
            </Array>
          </mxGeometry>
        </mxCell>
        <mxCell id="d5NTxCS-VkbqAfCXkj9J-53" value="Fetch as DataFrame" style="edgeLabel;html=1;align=center;verticalAlign=middle;resizable=0;points=[];fontSize=14;" vertex="1" connectable="0" parent="d5NTxCS-VkbqAfCXkj9J-52">
          <mxGeometry x="0.175" y="-1" relative="1" as="geometry">
            <mxPoint as="offset" />
          </mxGeometry>
        </mxCell>
        <mxCell id="d5NTxCS-VkbqAfCXkj9J-46" value="Json&lt;div&gt;CSV&lt;/div&gt;&lt;div&gt;Parquet&lt;/div&gt;" style="text;strokeColor=none;fillColor=none;align=left;verticalAlign=middle;spacingLeft=4;spacingRight=4;overflow=hidden;points=[[0,0.5],[1,0.5]];portConstraint=eastwest;rotatable=0;whiteSpace=wrap;html=1;fontSize=14;" vertex="1" parent="1">
          <mxGeometry x="-140" y="220" width="60" height="60" as="geometry" />
        </mxCell>
        <mxCell id="d5NTxCS-VkbqAfCXkj9J-61" value="Provide historical data" style="text;html=1;align=center;verticalAlign=middle;resizable=0;points=[];autosize=1;strokeColor=none;fillColor=none;fontSize=14;" vertex="1" parent="1">
          <mxGeometry x="-90" y="90" width="160" height="30" as="geometry" />
        </mxCell>
        <mxCell id="d5NTxCS-VkbqAfCXkj9J-63" value="&lt;font style=&quot;font-size: 14px;&quot;&gt;Prescription&lt;/font&gt;" style="shape=image;html=1;verticalAlign=top;verticalLabelPosition=bottom;labelBackgroundColor=#ffffff;imageAspect=0;aspect=fixed;image=https://cdn1.iconfinder.com/data/icons/medicoicons/64/prescription.png" vertex="1" parent="1">
          <mxGeometry x="1136" y="330" width="84" height="84" as="geometry" />
        </mxCell>
        <mxCell id="d5NTxCS-VkbqAfCXkj9J-68" value="Define&amp;nbsp;&lt;div&gt;optimization&lt;div&gt;&amp;nbsp;problem&lt;/div&gt;&lt;/div&gt;" style="text;html=1;align=center;verticalAlign=middle;resizable=0;points=[];autosize=1;strokeColor=none;fillColor=none;fontSize=14;" vertex="1" parent="1">
          <mxGeometry x="-60" y="120" width="100" height="60" as="geometry" />
        </mxCell>
        <mxCell id="d5NTxCS-VkbqAfCXkj9J-69" value="Objective&lt;div&gt;Constraints&lt;/div&gt;" style="text;html=1;align=center;verticalAlign=middle;resizable=0;points=[];autosize=1;strokeColor=none;fillColor=none;fontSize=14;" vertex="1" parent="1">
          <mxGeometry x="-65" y="225" width="90" height="50" as="geometry" />
        </mxCell>
      </root>
    </mxGraphModel>
  </diagram>
</mxfile>
